<?xml version="1.0" encoding="utf-8"?>
<svg width="952px" height="294px" viewBox="0 0 952 294" version="1.1" xmlns:xlink="http://www.w3.org/1999/xlink" xmlns="http://www.w3.org/2000/svg">
  <desc>Created with Lunacy</desc>
  <defs>
    <path d="M0 0L951.28 0L951.28 293.88L0 293.88L0 0Z" id="path_1" />
    <clipPath id="mask_1">
      <use xlink:href="#path_1" />
    </clipPath>
  </defs>
  <g id="lsd_fullLogo_en">
    <path d="M0 0L951.28 0L951.28 293.88L0 293.88L0 0Z" id="Background" fill="none" stroke="none" />
    <g clip-path="url(#mask_1)">
      <g id="Group">
        <g id="Group" transform="translate(0 0.3499756)">
          <path d="M80.72 195.18C63.92 195.18 47.71 190.22 33.84 180.85C20.31 171.71 9.81 158.95 3.46 143.95C2.12 140.78 0.96 137.46 0 134.03L30.07 134.03C31.39 136.97 32.93 139.76 34.67 142.34C40.73 151.32 49.19 158.29 59.13 162.49C65.97 165.38 73.25 166.85 80.75 166.85C91.88 166.84 102.61 163.57 111.8 157.37C120.78 151.31 127.75 142.85 131.95 132.91C134.84 126.07 136.31 118.8 136.31 111.29C136.3 105.31 135.39 99.77 133.51 94.37C131.79 89.46 129.33 84.81 125.99 80.15C120.51 72.51 112.35 64.76 101.05 56.46C100.58 56.11 99.37 55.25 98.03 54.29C96.02 52.85 93.22 54.29 93.22 56.76L93.22 96.82L64.89 96.82L64.89 0L161.72 0L161.72 28.33L119.78 28.33C116.87 28.33 115.62 32.03 117.94 33.79C126.04 39.91 138.9 50.48 147.67 61.81C154.63 70.8 159.37 80.66 162.05 90.87C163.78 97.42 164.65 104.29 164.65 111.29C164.66 128.11 159.7 144.33 150.32 158.2C141.18 171.73 128.42 182.23 113.42 188.58C103.07 192.96 92.09 195.18 80.78 195.18L80.72 195.18L80.72 195.18Z" transform="translate(6.540039 98.35004)" id="Shape" fill="#2B2C6B" stroke="none" />
          <path d="M45.14 166.85L2.93002 166.85L2.93002 195.18L71.43 195.18L71.43 144.31L67.93 141.83C66.19 140.6 64.86 139.64 63.6 138.71C52.29 130.42 44.13 122.67 38.66 115.02C35.31 110.36 32.85 105.71 31.14 100.8C29.26 95.4 28.35 89.86 28.34 83.88C28.34 76.38 29.81 69.1 32.7 62.26C36.9 52.32 43.87 43.87 52.85 37.8C62.04 31.61 72.77 28.33 83.9 28.32C91.4 28.32 98.68 29.79 105.52 32.68C115.46 36.88 123.91 43.84 129.98 52.83C131.72 55.4 133.26 58.19 134.58 61.14L164.65 61.14C163.69 57.72 162.53 54.39 161.19 51.22C154.84 36.22 144.34 23.47 130.81 14.32C116.94 4.96 100.73 0 83.87 0C72.56 0 61.58 2.22 51.23 6.6C36.23 12.95 23.47 23.45 14.33 36.98C4.95002 50.85 -0.00998491 67.07 1.50911e-05 83.89C1.50911e-05 90.88 0.870015 97.75 2.60001 104.31C5.28001 114.52 10.14 124.28 16.98 133.37C24.43 143.26 38.44 154.79 47.01 161.41C49.3 163.17 48.04 166.85 45.14 166.85L45.14 166.85Z" id="Shape" fill="#52B9A7" stroke="none" />
        </g>
        <g id="Group" transform="translate(255.8201 0)">
          <path d="M42.28 117.4C32.52 117.4 24.26 115.66 17.48 112.19C10.7 108.71 4.87999 104.15 0 98.51L14.47 84.5C18.37 89.02 22.73 92.46 27.56 94.83C32.38 97.2 37.72 98.38 43.58 98.38C50.19 98.38 55.18 96.95 58.54 94.1C61.8999 91.25 63.58 87.41 63.58 82.56C63.58 78.79 62.5 75.73 60.33 73.36C58.16 70.99 54.09 69.27 48.13 68.2L37.3999 66.59C14.7399 63.01 3.41994 51.99 3.41994 33.54C3.41994 28.44 4.36995 23.83 6.26994 19.7C8.16994 15.58 10.8999 12.05 14.4799 9.12C18.0599 6.19 22.3699 3.94 27.4099 2.36C32.4499 0.789999 38.1699 0 44.5599 0C53.1199 0 60.5999 1.41 66.9999 4.24C73.3899 7.07 78.8699 11.24 83.4199 16.78L68.7899 30.63C65.9699 27.19 62.5599 24.4 58.5499 22.25C54.5399 20.1 49.5 19.03 43.4299 19.03C37.25 19.03 32.6199 20.19 29.53 22.5C26.44 24.81 24.8999 28.06 24.8999 32.25C24.8999 36.55 26.1399 39.72 28.6399 41.76C31.1299 43.8 35.1399 45.31 40.6699 46.27L51.2399 48.22C62.7299 50.28 71.2099 53.94 76.69 59.21C82.16 64.47 84.8999 71.82 84.8999 81.27C84.8999 86.7 83.9499 91.61 82.0499 96C80.1499 100.4 77.3899 104.19 73.7599 107.4C70.1299 110.6 65.6799 113.07 60.4299 114.81C55.15 116.53 49.11 117.4 42.28 117.4L42.28 117.4Z" transform="translate(0 5.859985)" id="Shape" fill="#2B2C6B" stroke="none" />
          <path d="M34.47 108.13C27.32 108.13 21.87 106.27 18.13 102.54C14.39 98.81 12.52 93.48 12.52 86.56L12.52 40L0 40L0 23.25L6.5 23.25C9.64001 23.25 11.78 22.52 12.92 21.05C14.06 19.59 14.63 17.39 14.63 14.46L14.63 0L33.33 0L33.33 23.25L50.73 23.25L50.73 40L33.33 40L33.33 91.38L49.43 91.38L49.43 108.13L34.47 108.13L34.47 108.13Z" transform="translate(97.08008 13.16998)" id="Shape" fill="#2B2C6B" stroke="none" />
          <path d="M57.65 82.85C60.3 85.5 63.91 86.83 68.46 86.83L68.46 86.84L80 86.84L80 70.09L71.54 70.09L71.54 30.18C71.54 20.45 68.56 12.98 62.6 7.79C56.64 2.6 47.91 0 36.42 0C27.86 0 20.97 1.5 15.77 4.5C10.57 7.5 6.39001 11.45 3.25 16.36L15.61 27.48C17.67 24.55 20.19 22.03 23.17 19.92C26.15 17.81 30.08 16.75 34.96 16.75C40.49 16.75 44.49 18.05 46.99 20.65C49.48 23.25 50.73 26.94 50.73 31.71L50.73 37.89L36.26 37.89C24.66 37.89 15.72 40.02 9.42999 44.29C3.14001 48.56 0 55.07 0 63.82C0 71.39 2.32999 77.44 6.98999 81.98C11.65 86.52 18.32 88.79 26.99 88.79C33.39 88.79 38.75 87.4 43.09 84.64C47.43 81.88 50.3 77.73 51.71 72.2L52.69 72.2C53.34 76.65 54.99 80.19 57.65 82.85ZM45.8599 70.59C42.6099 72.64 38.6499 73.66 33.9899 73.66C29.8699 73.66 26.6999 72.83 24.4799 71.16C22.2599 69.49 21.1499 66.94 21.1499 63.49L21.1499 60.75C21.1499 53.86 26.5699 50.41 37.4099 50.41L50.7399 50.41L50.7399 61.55C50.7399 65.53 49.1099 68.54 45.8599 70.59Z" transform="translate(159.8401 34.47003)" id="Shape" fill="#2B2C6B" fill-rule="evenodd" stroke="none" />
          <path d="M34.47 108.13C27.32 108.13 21.87 106.27 18.13 102.54C14.39 98.81 12.52 93.48 12.52 86.56L12.52 40L0 40L0 23.25L6.5 23.25C9.63998 23.25 11.78 22.52 12.92 21.05C14.06 19.59 14.63 17.39 14.63 14.46L14.63 0L33.33 0L33.33 23.25L50.7301 23.25L50.7301 40L33.33 40L33.33 91.38L49.43 91.38L49.43 108.13L34.47 108.13L34.47 108.13Z" transform="translate(248.79 13.16998)" id="Shape" fill="#2B2C6B" stroke="none" />
          <path d="M2.84998 21.14C4.74994 23.09 7.85992 24.07 12.2 24.07C16.42 24.07 19.5099 23.09 21.47 21.14C23.42 19.19 24.4 16.7 24.4 13.66L24.4 10.41C24.4 7.38 23.42 4.88 21.47 2.93C19.52 0.98 16.4299 0 12.2 0C7.85999 0 4.75 0.98 2.84998 2.93C0.950012 4.88 0 7.38 0 10.41L0 13.66C0 16.7 0.949951 19.19 2.84998 21.14ZM22.6 36.42L1.79004 36.42L1.79004 121.3L22.6 121.3L22.6 36.42Z" transform="translate(315.78 0)" id="Shape" fill="#2B2C6B" fill-rule="evenodd" stroke="none" />
          <path d="M35.12 88.8C26.99 88.8 20.16 87.42 14.63 84.65C9.09998 81.89 4.22003 78.06 0 73.19L12.68 60.83C15.82 64.41 19.27 67.23 23.01 69.29C26.75 71.35 31.06 72.38 35.94 72.38C40.92 72.38 44.53 71.51 46.75 69.78C48.97 68.05 50.08 65.66 50.08 62.63C50.08 60.14 49.29 58.16 47.72 56.69C46.15 55.23 43.46 54.23 39.67 53.68L31.21 52.54C21.9901 51.35 14.97 48.72 10.15 44.65C5.33002 40.58 2.91003 34.65 2.91003 26.84C2.91003 22.72 3.67004 19.01 5.19006 15.7C6.71008 12.39 8.87006 9.58 11.6901 7.24C14.5101 4.91 17.8901 3.12 21.85 1.87C25.8101 0.619999 30.22 0 35.1 0C39.22 0 42.8801 0.299999 46.08 0.889999C49.28 1.49 52.18 2.35 54.78 3.49C57.38 4.63 59.76 6.04 61.9301 7.72C64.1 9.4 66.2101 11.27 68.2701 13.33L56.1 25.54C53.61 22.94 50.62 20.77 47.16 19.04C43.69 17.31 39.9 16.44 35.78 16.44C31.23 16.44 27.9499 17.25 25.9399 18.88C23.9299 20.51 22.9299 22.62 22.9299 25.22C22.9299 28.04 23.77 30.18 25.45 31.64C27.1299 33.1 29.97 34.16 33.9899 34.81L42.6099 35.95C60.9299 38.55 70.0899 46.9 70.0899 60.99C70.0899 65.11 69.2499 68.88 67.5699 72.29C65.8899 75.7 63.5299 78.63 60.4999 81.07C57.4599 83.51 53.8099 85.41 49.5199 86.76C45.23 88.12 40.43 88.8 35.12 88.8L35.12 88.8Z" transform="translate(355.1301 34.46002)" id="Shape" fill="#2B2C6B" stroke="none" />
          <path d="M34.47 108.13C27.32 108.13 21.8701 106.27 18.13 102.54C14.39 98.81 12.52 93.48 12.52 86.56L12.52 40L0 40L0 23.25L6.5 23.25C9.64001 23.25 11.78 22.52 12.92 21.05C14.06 19.59 14.63 17.39 14.63 14.46L14.63 0L33.33 0L33.33 23.25L50.73 23.25L50.73 40L33.33 40L33.33 91.38L49.43 91.38L49.43 108.13L34.47 108.13L34.47 108.13Z" transform="translate(435.6199 13.16998)" id="Shape" fill="#2B2C6B" stroke="none" />
          <path d="M2.84998 21.14C4.74994 23.09 7.85992 24.07 12.2 24.07C16.4199 24.07 19.52 23.09 21.47 21.14C23.42 19.19 24.4 16.7 24.4 13.66L24.4 10.41C24.4 7.38 23.42 4.88 21.47 2.93C19.52 0.98 16.4299 0 12.2 0C7.85999 0 4.75 0.98 2.84998 2.93C0.950012 4.88 0 7.38 0 10.41L0 13.66C0 16.7 0.949951 19.19 2.84998 21.14ZM22.6 36.42L1.79004 36.42L1.79004 121.3L22.6 121.3L22.6 36.42Z" transform="translate(502.6101 0)" id="Shape" fill="#2B2C6B" fill-rule="evenodd" stroke="none" />
          <path d="M39.19 88.78C32.9 88.78 27.32 87.75 22.44 85.69C17.56 83.63 13.47 80.65 10.16 76.75C6.84998 72.85 4.32996 68.16 2.59998 62.68C0.859985 57.21 0 51.05 0 44.22C0 37.39 0.869995 31.27 2.59998 25.85C4.32996 20.43 6.84998 15.8 10.16 11.95C13.47 8.1 17.56 5.15 22.44 3.09C27.32 1.03 32.9 0 39.19 0C47.75 0 54.83 1.9 60.41 5.69C65.99 9.49 70.03 14.74 72.52 21.46L55.45 29.1C54.47 25.52 52.66 22.57 49.9999 20.24C47.34 17.91 43.7399 16.74 39.1899 16.74C33.34 16.74 28.97 18.58 26.0999 22.27C23.2299 25.96 21.7899 30.78 21.7899 36.74L21.7899 52.19C21.7899 58.15 23.2299 62.95 26.0999 66.58C28.9699 70.21 33.3399 72.03 39.1899 72.03C44.1699 72.03 48.02 70.76 50.7399 68.21C53.45 65.66 55.5599 62.49 57.08 58.7L73.02 66.34C70.2 73.82 65.92 79.43 60.17 83.17C54.42 86.91 47.43 88.78 39.19 88.78L39.19 88.78Z" transform="translate(543.5801 34.47998)" id="Shape" fill="#2B2C6B" stroke="none" />
          <path d="M35.12 88.8C26.99 88.8 20.16 87.42 14.63 84.65C9.09998 81.89 4.22003 78.06 0 73.19L12.68 60.83C15.82 64.41 19.27 67.23 23.01 69.29C26.75 71.35 31.06 72.38 35.94 72.38C40.92 72.38 44.53 71.51 46.75 69.78C48.97 68.05 50.08 65.66 50.08 62.63C50.08 60.14 49.29 58.16 47.72 56.69C46.15 55.23 43.46 54.23 39.67 53.68L31.21 52.54C21.99 51.35 14.97 48.72 10.15 44.65C5.33002 40.58 2.91003 34.65 2.91003 26.84C2.91003 22.72 3.67004 19.01 5.19006 15.7C6.71008 12.39 8.87006 9.58 11.6901 7.24C14.5101 4.91 17.8901 3.12 21.85 1.87C25.8101 0.619999 30.22 0 35.1 0C39.22 0 42.8801 0.299999 46.08 0.889999C49.28 1.49 52.18 2.35 54.78 3.49C57.38 4.63 59.76 6.04 61.93 7.72C64.1 9.4 66.2101 11.27 68.2701 13.33L56.09 25.54C53.6 22.94 50.61 20.77 47.15 19.04C43.68 17.31 39.8899 16.44 35.77 16.44C31.22 16.44 27.9399 17.25 25.9299 18.88C23.9199 20.51 22.9199 22.62 22.9199 25.22C22.9199 28.04 23.7599 30.18 25.4399 31.64C27.1199 33.1 29.96 34.16 33.9799 34.81L42.5999 35.95C60.9199 38.55 70.0799 46.9 70.0799 60.99C70.0799 65.11 69.2399 68.88 67.5599 72.29C65.8799 75.7 63.5199 78.63 60.4899 81.07C57.4499 83.51 53.7999 85.41 49.5099 86.76C45.22 88.12 40.43 88.8 35.12 88.8L35.12 88.8Z" transform="translate(625.3801 34.46002)" id="Shape" fill="#2B2C6B" stroke="none" />
          <path d="M0 113.5L0 0L21.46 0L21.46 94.47L66.18 94.47L66.18 113.49L0 113.49L0 113.5Z" transform="translate(7 173.91)" id="Shape" fill="#2B2C6B" stroke="none" />
          <path d="M2.85001 21.14C4.75 23.09 7.86002 24.07 12.2 24.07C16.43 24.07 19.52 23.09 21.47 21.14C23.42 19.19 24.4 16.7 24.4 13.66L24.4 10.41C24.4 7.37999 23.42 4.87999 21.47 2.92999C19.52 0.979996 16.43 0 12.2 0C7.86002 0 4.75 0.979996 2.85001 2.92999C0.950012 4.87999 0 7.37999 0 10.41L0 13.66C0 16.7 0.950012 19.19 2.85001 21.14ZM22.6 36.4299L1.79004 36.4299L1.79004 121.31L22.6 121.31L22.6 36.4299Z" transform="translate(88.61987 166.1)" id="Shape" fill="#2B2C6B" fill-rule="evenodd" stroke="none" />
          <path d="M34.47 108.14C27.32 108.14 21.87 106.28 18.13 102.55C14.39 98.82 12.52 93.49 12.52 86.57L12.52 40.01L0 40.01L0 23.26L6.5 23.26C9.64001 23.26 11.78 22.53 12.92 21.06C14.06 19.6 14.63 17.4 14.63 14.47L14.63 0L33.33 0L33.33 23.25L50.73 23.25L50.73 40L33.33 40L33.33 91.38L49.43 91.38L49.43 108.13L34.47 108.13L34.47 108.14Z" transform="translate(127.3301 179.27)" id="Shape" fill="#2B2C6B" stroke="none" />
          <path d="M3.05176e-05 0L20.81 0L20.81 49.59L21.62 49.59C23.35 45.04 26.09 41.22 29.83 38.13C33.57 35.04 38.75 33.5 45.36 33.5C54.14 33.5 60.86 36.37 65.52 42.12C70.18 47.87 72.51 56.05 72.51 66.67L72.51 120.33L51.7 120.33L51.7 68.78C51.7 62.71 50.61 58.16 48.45 55.12C46.28 52.09 42.7 50.57 37.72 50.57C35.55 50.57 33.46 50.87 31.46 51.46C29.45 52.06 27.66 52.92 26.09 54.06C24.52 55.2 23.24 56.61 22.27 58.29C21.29 59.97 20.81 61.95 20.81 64.23L20.81 120.33L0 120.33L0 0L3.05176e-05 0Z" transform="translate(196.0999 167.08)" id="Shape" fill="#2B2C6B" stroke="none" />
          <path d="M51.71 70.74L50.9 70.74C50.14 72.91 49.14 74.94 47.89 76.84C46.64 78.74 45.0699 80.45 43.17 81.96C41.27 83.48 39 84.67 36.34 85.54C33.68 86.41 30.62 86.84 27.15 86.84C18.3699 86.84 11.65 83.97 6.98999 78.22C2.33002 72.48 0 64.29 0 53.67L0 0.0100098L20.81 0.0100098L20.81 51.56C20.81 57.41 21.95 61.89 24.22 64.97C26.5 68.06 30.1299 69.6 35.11 69.6C37.17 69.6 39.2 69.33 41.21 68.79C43.21 68.25 44.98 67.41 46.49 66.27C48.01 65.13 49.25 63.72 50.23 62.04C51.21 60.36 51.69 58.38 51.69 56.1L51.69 0L72.5 0L72.5 84.88L51.69 84.88L51.69 70.74L51.71 70.74Z" transform="translate(290.74 202.52)" id="Shape" fill="#2B2C6B" stroke="none" />
          <path d="M57.65 82.85C60.3 85.5 63.91 86.83 68.46 86.83L68.46 86.84L80.0001 86.84L80.0001 70.09L71.54 70.09L71.54 30.18C71.54 20.45 68.5601 12.98 62.6 7.78999C56.64 2.60001 47.91 0 36.42 0C27.86 0 20.97 1.5 15.77 4.5C10.57 7.5 6.39002 11.45 3.25 16.36L15.61 27.48C17.67 24.55 20.19 22.03 23.17 19.92C26.15 17.81 30.08 16.75 34.96 16.75C40.49 16.75 44.49 18.05 46.99 20.65C49.48 23.25 50.73 26.94 50.73 31.71L50.73 37.89L36.26 37.89C24.66 37.89 15.72 40.02 9.42999 44.29C3.14001 48.56 0 55.07 0 63.82C0 71.39 2.33002 77.44 6.98999 81.98C11.65 86.52 18.32 88.79 26.99 88.79C33.39 88.79 38.7499 87.4 43.09 84.64C47.4299 81.88 50.3 77.73 51.71 72.2L52.6899 72.2C53.34 76.65 54.99 80.19 57.65 82.85ZM45.8599 70.5899C42.6099 72.6399 38.6499 73.6599 33.9899 73.6599C29.8599 73.6599 26.6899 72.8199 24.4799 71.1599C22.2599 69.4899 21.1499 66.9399 21.1499 63.4899L21.1499 60.7499C21.1499 53.8599 26.5699 50.4099 37.4099 50.4099L50.7399 50.4099L50.7399 61.5499C50.7399 65.5299 49.1099 68.5399 45.8599 70.5899Z" transform="translate(381.3101 200.58)" id="Shape" fill="#2B2C6B" fill-rule="evenodd" stroke="none" />
          <path d="M0 86.82L0 1.94002L20.81 1.94002L20.81 16.09L21.62 16.09C23.35 11.54 26.09 7.72002 29.83 4.63C33.57 1.54001 38.75 0 45.36 0C54.1401 0 60.86 2.86999 65.52 8.62C70.18 14.37 72.51 22.55 72.51 33.17L72.51 86.83L51.7 86.83L51.7 35.28C51.7 29.21 50.61 24.66 48.45 21.62C46.28 18.59 42.7 17.07 37.72 17.07C35.55 17.07 33.46 17.37 31.46 17.96C29.45 18.56 27.66 19.42 26.09 20.56C24.52 21.7 23.2401 23.11 22.27 24.79C21.29 26.47 20.81 28.45 20.81 30.73L20.81 86.83L0 86.83L0 86.82Z" transform="translate(478.22 200.59)" id="Shape" fill="#2B2C6B" stroke="none" />
          <path d="M2.84998 21.14C4.74994 23.09 7.85992 24.07 12.2 24.07C16.4299 24.07 19.52 23.09 21.47 21.14C23.42 19.19 24.4 16.7 24.4 13.66L24.4 10.41C24.4 7.37999 23.42 4.87999 21.47 2.92999C19.52 0.979996 16.4299 0 12.2 0C7.85999 0 4.75 0.979996 2.84998 2.92999C0.950012 4.87999 0 7.37999 0 10.41L0 13.66C0 16.7 0.949951 19.19 2.84998 21.14ZM22.6 36.4299L1.79004 36.4299L1.79004 121.31L22.6 121.31L22.6 36.4299Z" transform="translate(572.04 166.1)" id="Shape" fill="#2B2C6B" fill-rule="evenodd" stroke="none" />
          <path d="M57.65 82.85C60.3 85.5 63.91 86.83 68.46 86.83L68.46 86.84L80.0001 86.84L80.0001 70.09L71.54 70.09L71.54 30.18C71.54 20.45 68.5601 12.98 62.6 7.78999C56.64 2.60001 47.91 0 36.42 0C27.86 0 20.97 1.5 15.77 4.5C10.57 7.5 6.39002 11.45 3.25 16.36L15.61 27.48C17.67 24.55 20.19 22.03 23.17 19.92C26.15 17.81 30.08 16.75 34.96 16.75C40.49 16.75 44.49 18.05 46.99 20.65C49.48 23.25 50.73 26.94 50.73 31.71L50.73 37.89L36.26 37.89C24.66 37.89 15.72 40.02 9.42999 44.29C3.14001 48.56 0 55.07 0 63.82C0 71.39 2.33002 77.44 6.98999 81.98C11.65 86.52 18.32 88.79 26.99 88.79C33.39 88.79 38.7499 87.4 43.09 84.64C47.4299 81.88 50.3 77.73 51.71 72.2L52.6899 72.2C53.34 76.65 54.99 80.19 57.65 82.85ZM45.8599 70.5899C42.6099 72.6399 38.6499 73.6599 33.9899 73.6599C29.8699 73.6599 26.7 72.8199 24.4799 71.1599C22.2599 69.4899 21.1499 66.9399 21.1499 63.4899L21.1499 60.7499C21.1499 53.8599 26.5699 50.4099 37.4099 50.4099L50.7399 50.4099L50.7399 61.5499C50.7399 65.5299 49.1099 68.5399 45.8599 70.5899Z" transform="translate(612.6899 200.58)" id="Shape" fill="#2B2C6B" fill-rule="evenodd" stroke="none" />
        </g>
      </g>
    </g>
  </g>
</svg>